<?xml version="1.0" encoding="UTF-8" standalone="no"?>
<!DOCTYPE svg PUBLIC "-//W3C//DTD SVG 1.1//EN" "http://www.w3.org/Graphics/SVG/1.1/DTD/svg11.dtd">
<svg width="100%" height="100%" viewBox="0 0 41 67" version="1.1" xmlns="http://www.w3.org/2000/svg" xmlns:xlink="http://www.w3.org/1999/xlink" xml:space="preserve" xmlns:serif="http://www.serif.com/" style="fill-rule:evenodd;clip-rule:evenodd;stroke-linejoin:round;stroke-miterlimit:1.41421;">
    <g transform="matrix(1,0,0,1,-595.523,-1226.89)">
        <path d="M614.573,1229.32C622.706,1232.16 628.401,1238.98 631.641,1252.29C633.073,1258.17 636.167,1271.95 635.986,1279.49C635.894,1283.32 634.794,1289.94 633.158,1291.77C630.9,1294.3 619.245,1293.47 615.847,1293.47C613.324,1293.47 603.358,1290.63 601.197,1288.18C596.381,1282.72 601.64,1274.4 600.358,1255.91C599.97,1250.31 593.879,1241.75 595.952,1229.97C596.928,1224.43 610.085,1227.76 614.573,1229.32Z" style="fill:rgb(246,218,104);"/>
    </g>
    <g transform="matrix(1,0,0,1,-595.523,-1226.89)">
        <path d="M598.102,1227.53L597.952,1227.97C595.879,1239.75 601.97,1248.31 602.358,1253.91C603.64,1272.4 598.381,1280.72 603.197,1286.18C605.358,1288.63 615.324,1291.47 617.847,1291.47C620.818,1291.47 630.105,1292.11 633.87,1290.58C633.662,1291.07 633.417,1291.48 633.158,1291.77C630.9,1294.3 619.245,1293.47 615.847,1293.47C613.324,1293.47 603.358,1290.63 601.197,1288.18C596.381,1282.72 601.64,1274.4 600.358,1255.91C599.97,1250.31 593.879,1241.75 595.952,1229.97C596.162,1228.78 596.933,1228 598.102,1227.53Z" style="fill:rgb(235,188,0);"/>
    </g>
</svg>
