<?xml version="1.0" encoding="UTF-8" standalone="no"?>
<!DOCTYPE svg PUBLIC "-//W3C//DTD SVG 1.1//EN" "http://www.w3.org/Graphics/SVG/1.1/DTD/svg11.dtd">
<svg width="100%" height="100%" viewBox="0 0 180 182" version="1.1" xmlns="http://www.w3.org/2000/svg" xmlns:xlink="http://www.w3.org/1999/xlink" xml:space="preserve" xmlns:serif="http://www.serif.com/" style="fill-rule:evenodd;clip-rule:evenodd;stroke-linejoin:round;stroke-miterlimit:1.41421;">
    <g transform="matrix(0.98655,0,0,0.98655,-561.53,-1085.63)">
        <circle cx="656.706" cy="1187.95" r="87.521" style="fill:rgb(249,218,86);fill-opacity:0.850643;"/>
    </g>
    <g transform="matrix(0.980992,0.104578,-0.104578,0.980992,-433.501,-1147.73)">
        <path d="M713.291,1121.23C732.216,1137.27 744.226,1161.22 744.226,1187.95C744.226,1236.25 705.01,1275.47 656.706,1275.47C629.974,1275.47 606.025,1263.46 589.984,1244.54C605.237,1257.51 624.997,1265.33 646.569,1265.33C694.873,1265.33 734.09,1226.12 734.09,1177.81C734.09,1156.24 726.268,1136.48 713.291,1121.23Z" style="fill:rgb(245,196,0);fill-opacity:0.850643;"/>
    </g>
    <g transform="matrix(0.997071,-0.0764855,0.0764855,0.997071,-668.088,-1045.35)">
        <path d="M662.499,1224.51C682.156,1224.51 705.78,1214.48 705.78,1223C705.78,1231.51 682.603,1252.11 662.946,1252.11C643.289,1252.11 623.326,1234.14 623.326,1225.62C623.326,1217.11 642.842,1224.51 662.499,1224.51Z" style="fill:rgb(217,140,46);"/>
    </g>
    <g transform="matrix(0.997071,-0.0764855,0.0764855,0.997071,-669.088,-1045.35)">
        <path d="M624.127,1228.94C623.599,1227.74 623.326,1226.62 623.326,1225.62C623.326,1217.11 642.842,1224.51 662.499,1224.51C682.156,1224.51 705.78,1214.48 705.78,1223L705.651,1223.84C701.169,1219.72 680.664,1227.57 663.267,1227.57C643.61,1227.57 624.094,1220.17 624.094,1228.69L624.127,1228.94Z" style="fill:rgb(214,121,7);"/>
    </g>
    <g transform="matrix(1,0,0,1,-575.511,-1099.8)">
        <rect x="609.804" y="1185.31" width="23.154" height="72.815" style="fill:rgb(88,137,234);"/>
    </g>
    <g transform="matrix(1,0,0,1,-575.511,-1099.8)">
        <rect x="609.804" y="1185.31" width="1" height="72.815" style="fill:rgb(133,164,220);"/>
    </g>
    <g transform="matrix(1,0,0,1,-553.33,-1099.78)">
        <rect x="609.804" y="1185.31" width="1" height="72.815" style="fill:rgb(133,164,220);"/>
    </g>
    <g transform="matrix(1,0,0,1,-495.017,-1096.77)">
        <rect x="609.804" y="1185.31" width="23.154" height="72.815" style="fill:rgb(88,137,234);"/>
    </g>
    <g transform="matrix(1,0,0,1,-495.04,-1096.76)">
        <rect x="609.804" y="1185.31" width="1" height="72.815" style="fill:rgb(133,164,220);"/>
    </g>
    <g transform="matrix(1,0,0,1,-472.886,-1096.87)">
        <rect x="609.804" y="1185.31" width="1" height="72.815" style="fill:rgb(133,164,220);"/>
    </g>
    <g transform="matrix(1,0,0,1,-575.511,-1099.8)">
        <path d="M619.422,1161.55C620.512,1162.41 621.957,1162.69 623.292,1162.3C624.627,1161.9 625.685,1160.88 626.127,1159.56C626.184,1159.41 626.234,1159.27 626.285,1159.12C626.747,1157.77 631.332,1149.28 639.393,1149.71C646.767,1150.11 652.652,1156.66 652.678,1164.04C652.708,1172.69 638.417,1192.1 634.186,1197.65C633.505,1198.55 632.32,1198.91 631.253,1198.54C623.868,1195.89 595.889,1184.93 595.679,1171.15C595.567,1163.77 601.588,1157.18 608.973,1157.18C611.998,1157.18 616.145,1158.99 619.422,1161.55Z" style="fill:rgb(221,61,21);"/>
    </g>
    <g transform="matrix(1,0,0,1,-575.511,-1099.8)">
        <path d="M595.761,1172.21L595.679,1171.15C595.567,1163.77 601.588,1157.18 608.973,1157.18C611.998,1157.18 616.145,1158.99 619.422,1161.55C620.512,1162.41 621.957,1162.69 623.292,1162.3C624.627,1161.9 625.685,1160.88 626.127,1159.56C626.184,1159.41 626.234,1159.27 626.285,1159.12C626.747,1157.77 631.332,1149.28 639.393,1149.71C646.767,1150.11 652.652,1156.66 652.678,1164.04L652.583,1165.1C652.134,1158.1 646.444,1152.1 639.393,1151.71C631.332,1151.28 626.747,1159.77 626.285,1161.12C626.234,1161.27 626.184,1161.41 626.127,1161.56C625.685,1162.88 624.627,1163.9 623.292,1164.3C621.957,1164.69 620.512,1164.41 619.422,1163.55C616.145,1160.99 611.998,1159.18 608.973,1159.18C601.911,1159.18 596.097,1165.2 595.761,1172.21Z" style="fill:rgb(187,45,9);"/>
    </g>
    <g transform="matrix(-1,0,0,1,748.879,-1099.92)">
        <path d="M619.422,1161.55C620.512,1162.41 621.957,1162.69 623.292,1162.3C624.627,1161.9 625.685,1160.88 626.127,1159.56C626.184,1159.41 626.234,1159.27 626.285,1159.12C626.747,1157.77 631.332,1149.28 639.393,1149.71C646.767,1150.11 652.652,1156.66 652.678,1164.04C652.708,1172.69 638.417,1192.1 634.186,1197.65C633.505,1198.55 632.32,1198.91 631.253,1198.54C623.868,1195.89 595.889,1184.93 595.679,1171.15C595.567,1163.77 601.588,1157.18 608.973,1157.18C611.998,1157.18 616.145,1158.99 619.422,1161.55Z" style="fill:rgb(221,61,21);"/>
    </g>
    <g transform="matrix(-1,0,0,1,748.845,-1099.8)">
        <path d="M595.761,1172.21L595.679,1171.15C595.567,1163.77 601.588,1157.18 608.973,1157.18C611.998,1157.18 616.145,1158.99 619.422,1161.55C620.512,1162.41 621.957,1162.69 623.292,1162.3C624.627,1161.9 625.685,1160.88 626.127,1159.56C626.184,1159.41 626.234,1159.27 626.285,1159.12C626.747,1157.77 631.332,1149.28 639.393,1149.71C646.767,1150.11 652.652,1156.66 652.678,1164.04L652.583,1165.1C652.134,1158.1 646.444,1152.1 639.393,1151.71C631.332,1151.28 626.747,1159.77 626.285,1161.12C626.234,1161.27 626.184,1161.41 626.127,1161.56C625.685,1162.88 624.627,1163.9 623.292,1164.3C621.957,1164.69 620.512,1164.41 619.422,1163.55C616.145,1160.99 611.998,1159.18 608.973,1159.18C601.911,1159.18 596.097,1165.2 595.761,1172.21Z" style="fill:rgb(187,45,9);"/>
    </g>
    <g transform="matrix(-0.949862,0,0,0.992521,717.168,-1092.55)">
        <path d="M610.801,1262.35L633.832,1262.35C633.068,1258.32 632.677,1254.66 632.1,1252.29C628.86,1238.98 622.706,1232.16 614.573,1229.32L610.801,1228.24L610.801,1262.35Z" style="fill:rgb(52,118,239);"/>
    </g>
    <g transform="matrix(0.949862,0,0,0.992521,-544.744,-1093.2)">
        <path d="M610.801,1262.35L633.832,1262.35C633.068,1258.32 632.677,1254.66 632.1,1252.29C628.86,1238.98 622.706,1232.16 614.573,1229.32L610.801,1228.24L610.801,1262.35Z" style="fill:rgb(52,118,239);"/>
    </g>
</svg>
